<svg xmlns:dc="http://purl.org/dc/elements/1.1/" xmlns:cc="http://creativecommons.org/ns#" xmlns:rdf="http://www.w3.org/1999/02/22-rdf-syntax-ns#" xmlns:svg="http://www.w3.org/2000/svg" xmlns="http://www.w3.org/2000/svg" width="396.048" height="308" id="svg2" version="1.1"><defs id="defs4"><clipPath clipPathUnits="userSpaceOnUse" id="clipPath3046"><rect id="rect3048" width="424.286" height="391.429" x="154.286" y="212.362" ry="6.879" fill="#0000ff" fill-rule="evenodd" stroke="#000000" stroke-width="1px" stroke-linecap="butt" stroke-linejoin="miter" stroke-opacity="1"/></clipPath></defs><metadata id="metadata7"><rdf:RDF><cc:Work><dc:format>image/svg+xml</dc:format><dc:type rdf:resource="http://purl.org/dc/dcmitype/StillImage"/><dc:title/></cc:Work></rdf:RDF></metadata><g id="layer1" transform="translate(-171.05074,-315.37671)"><g id="g3092" transform="translate(-15.95068,22.443822)"><path d="m 183.14273,601.21189 c 0.27782,-1.44263 43.26295,-35.66958 86.31521,-68.72858 35.14033,-26.98358 35.91167,-27.67227 36.8704,-32.91998 0.77312,-4.23173 0.62695,-5.07753 -1.19174,-6.89623 -1.97818,-1.97817 -2.4525,-2.01706 -10.3758,-0.85066 -10.56637,1.5555 -13.32287,0.76965 -17.34354,-4.94441 -2.61126,-3.71106 -4.25535,-4.8523 -10.02407,-6.9582 -5.27954,-1.92733 -7.1014,-3.10185 -7.75574,-5 -1.20573,-3.49762 0.69189,-7.72532 4.38632,-9.77226 6.39379,-3.54256 6.35535,-3.47892 5.1039,-8.44891 -1.64599,-6.53682 -0.13798,-10.11554 5.68474,-13.49072 12.88836,-7.47081 32.81779,-24.74614 36.20296,-31.38163 2.36754,-4.64075 2.50417,-12.95628 0.4007,-24.38742 -3.59112,-19.51563 -3.42302,-20.7433 3.24412,-23.69249 6.52667,-2.88705 12.04963,-2.00457 22.7393,3.63338 8.99923,4.74637 13.43734,5.61489 15.56872,3.04673 0.81051,-0.9766 1.48133,-6.80641 1.8936,-16.45642 0.62215,-14.56251 0.70896,-15.01764 3.4004,-17.8269 3.7913,-3.95727 9.98257,-6.83994 17.62811,-8.20771 10.08946,-1.80498 11.4765,-1.1988 24.19572,10.57434 6.34823,5.87604 14.02247,11.94035 17.3719,13.72756 4.83739,2.58116 6.41722,4.07127 8.1532,7.69014 2.63365,5.4902 5.57421,6.90569 14.4718,6.96627 9.92211,0.0675 12.7285,-0.80472 17.2487,-5.36115 6.43755,-6.48914 11.94737,-10.57353 14.27781,-10.58404 1.2616,-0.006 3.3297,1.44446 5,3.50599 8.63445,10.65692 7.85531,10.03774 10.47068,8.32103 1.30779,-0.85843 23.05488,-17.6628 48.32686,-37.34304 25.27198,-19.68025 46.64698,-35.82983 47.5,-35.88798 1.37489,-0.0937 1.58054,4.73557 1.81161,42.54165 l 0.26066,42.64736 -33.95677,26.35264 c -18.67623,14.49395 -33.98102,26.8845 -34.01066,27.53455 -0.0296,0.65004 1.3029,2.14802 2.9612,3.32883 5.60653,3.99221 8.25532,13.01297 5.65115,19.24564 -2.33824,5.59619 -13.96605,12.67277 -27.37482,16.66006 -7.81014,2.32246 -10.20812,4.02296 -10.44222,7.40499 -0.51811,7.48496 1.49307,12.28105 8.63293,20.58713 10.37597,12.07079 18.10615,33.38668 14.53052,40.0678 -1.70959,3.19441 -7.57933,6.03684 -15.68443,7.59522 -9.84817,1.89352 -13.47464,1.31117 -25.32855,-4.06731 -9.61231,-4.36141 -18.01661,-6.50887 -25.43333,-6.49869 -10.91417,0.015 -16.07799,4.46484 -17.58939,15.15748 -1.3567,9.5982 -6.01019,11.49307 -14.00404,5.70236 -8.14301,-5.89877 -12.54814,-7.30247 -22.40856,-7.14052 -9.16411,0.15051 -11.37399,-0.43431 -15.3567,-4.06396 -1.91967,-1.7495 -2.60986,-1.89085 -4.24536,-0.86946 -1.07416,0.67082 -16.24261,12.37523 -33.70765,26.00979 -17.46505,13.63456 -34.81904,27.13205 -38.56441,29.99442 l -6.80977,5.20431 -54.51356,0 c -51.02944,0 -54.49237,-0.10999 -54.18211,-1.721 z" id="path3106" fill="#f5a1d3"/><path d="m 185.01412,600.68289 c 0.0309,-0.6875 13.16357,-11.375 29.18372,-23.75 16.02015,-12.375 33.967,-26.325 39.8819,-31 5.91489,-4.675 20.17927,-15.8037 31.69861,-24.73044 l 20.94426,-16.23044 0.69969,-5.60018 c 0.57914,-4.6353 0.39029,-5.94207 -1.09613,-7.58454 -1.64726,-1.8202 -2.60022,-1.92734 -11.51861,-1.29506 -12.24535,0.86815 -13.92719,0.42663 -16.61908,-4.36293 -1.51987,-2.70425 -3.45968,-4.39772 -6.45191,-5.63257 -9.70028,-4.00316 -10.86677,-4.62996 -11.45131,-6.15325 -0.91078,-2.37345 2.22547,-8.13799 4.86575,-8.94341 4.97426,-1.51742 5.8815,-3.28294 5.18423,-10.0887 -0.7155,-6.98372 -0.009,-8.13518 7.82809,-12.76357 9.77676,-5.77371 28.59469,-22.11649 32.85825,-28.53635 2.59101,-3.90143 2.93636,-5.29892 2.93636,-11.88213 0,-4.10338 -0.97485,-12.99099 -2.16632,-19.75025 -2.03505,-11.54486 -2.06551,-12.44341 -0.50268,-14.8286 2.00819,-3.06488 8.52773,-5.05426 13.50414,-4.12068 1.93418,0.36285 7.47854,2.64949 12.3208,5.08142 8.48932,4.26359 12.93578,5.28492 15.61233,3.58606 2.19798,-1.3951 3.23173,-7.29357 3.23173,-18.4399 0,-13.47163 1.14713,-16.55432 7.55832,-20.31153 5.2983,-3.10501 17.42345,-5.7955 21.79313,-4.83576 1.68116,0.36925 7.84324,5.15918 14.99223,11.65382 6.67583,6.0648 14.46874,12.17006 17.31758,13.56726 4.05716,1.98982 5.68454,3.52889 7.50921,7.10171 1.28124,2.50875 3.45453,5.12592 4.82953,5.81595 3.03213,1.52163 17.80025,1.69071 21.59682,0.24726 1.49986,-0.57025 5.63136,-3.75368 9.18111,-7.0743 3.54975,-3.32061 7.57731,-6.54926 8.95014,-7.17476 2.67586,-1.2192 2.09114,-1.69102 11.40676,9.20425 1.44915,1.69489 3.24915,3.08108 4,3.08043 0.75084,-6.6e-4 22.74017,-16.64103 48.86517,-36.97862 26.125,-20.33758 48.06744,-36.98705 48.76097,-36.99881 0.99893,-0.0169 1.20674,8.65319 1,41.72107 l -0.26097,41.74246 -33.91717,26.50906 c -18.65445,14.57998 -34.09593,27.04532 -34.3144,27.70074 -0.21847,0.65542 1.40163,2.3821 3.60023,3.83707 4.52791,2.99643 6.13134,6.53751 6.13134,13.54072 0,3.63669 -0.59715,5.48373 -2.50656,7.75292 -3.07378,3.65298 -18.10666,11.48593 -25.23184,13.14717 -6.6438,1.54899 -10.01582,4.20039 -10.82454,8.51124 -1.0077,5.3715 1.89712,12.20592 8.71994,20.51617 8.28813,10.095 15.843,26.77658 15.843,34.98224 0,6.83939 -7.39802,10.98023 -21.03531,11.77393 -9.17367,0.53391 -7.31384,1.04008 -27.28896,-7.4269 -4.04295,-1.71371 -8.52138,-2.6435 -14.64285,-3.0401 -7.69079,-0.49826 -9.38423,-0.2975 -13.24164,1.56984 -5.21339,2.52376 -8.23329,7.3157 -9.16323,14.5401 -1.12471,8.73749 -4.26402,9.72944 -12.73998,4.02554 -8.82359,-5.93784 -11.41881,-6.72668 -22.47075,-6.83021 -9.90624,-0.0928 -10.14796,-0.15171 -13.80987,-3.36646 -2.04993,-1.7996 -4.13894,-3.01751 -4.64224,-2.70645 -0.5033,0.31105 -18.8102,14.49596 -40.68199,31.52201 l -39.7669,30.95646 -53.25814,0 c -41.96981,0 -53.24623,-0.26494 -53.20196,-1.25 z" id="path3104" fill="#ee5ab2"/><path d="m 187.00144,600.18289 c 0.0239,-0.4125 15.12832,-12.45 33.5653,-26.75 18.43699,-14.3 35.69625,-27.8 38.35391,-30 2.65766,-2.2 14.77827,-11.63651 26.9347,-20.97002 17.69881,-13.58887 22.10259,-17.43738 22.10259,-19.31574 0,-1.29015 0.50895,-3.2967 1.13099,-4.459 0.89628,-1.67471 0.7679,-2.78751 -0.61858,-5.36206 -2.27849,-4.23089 -5.81753,-5.6448 -11.01241,-4.39965 -2.2,0.52732 -6.3625,0.96949 -9.25,0.98261 -5.49369,0.025 -5.65641,-0.0752 -10.8147,-6.65399 -1.7652,-2.25131 -4.39445,-3.81105 -9.01791,-5.34964 l -6.52624,-2.17179 0.30443,-3.59165 c 0.26005,-3.06817 0.9603,-3.97657 4.80442,-6.23257 l 4.5,-2.64092 0.0469,-6.41779 c 0.0645,-8.83103 -0.20428,-8.28809 6.20312,-12.53003 15.15821,-10.03531 32.09476,-25.20297 35.4197,-31.72039 2.64264,-5.18001 2.57262,-15.03402 -0.21602,-30.40368 -2.18516,-12.04353 -1.89847,-14.1525 2.22376,-16.35865 4.77012,-2.5529 11.09943,-1.52027 20.94738,3.41754 10.58016,5.30495 15.39034,5.97511 18.47019,2.57328 1.63426,-1.80512 1.97904,-4.20946 2.42606,-16.9183 0.58895,-16.74405 0.84225,-17.34947 8.98682,-21.47981 4.58251,-2.32391 14.42499,-4.23884 19.02781,-3.70201 1.58096,0.18439 6.85227,4.26166 14,10.82877 6.6298,6.09124 13.91152,11.78231 17.26752,13.49552 4.81603,2.45854 6.12366,3.71002 7.68685,7.3568 2.86814,6.69111 5.68526,8.03896 16.59508,7.93993 8.0411,-0.073 9.70834,-0.40686 13.54245,-2.71185 2.40482,-1.44573 6.31378,-4.61019 8.68659,-7.03213 2.3728,-2.42194 5.39496,-4.98194 6.71591,-5.68889 2.91627,-1.56074 4.47658,-0.52276 8.26985,5.50143 2.94448,4.6762 4.98761,6.43859 7.51557,6.48288 0.99854,0.0175 22.88821,-16.3932 48.64371,-36.4682 25.75551,-20.075 47.32602,-36.5 47.93448,-36.5 1.68814,0 1.54815,79.06984 -0.14371,81.16773 -0.6875,0.8525 -16.2125,13.15209 -34.5,27.33243 -21.52157,16.68808 -33.25,26.4093 -33.25,27.55958 0,0.97743 1.62663,2.78245 3.61473,4.01117 4.27071,2.63944 6.38527,7.10874 6.38527,13.49576 0,5.65781 -2.53606,8.38719 -12.68863,13.65585 -6.73044,3.49274 -9.71734,4.60985 -18.10698,6.77205 -11.25734,2.90128 -10.66107,16.19668 1.34568,30.00543 6.80998,7.83204 15.44993,26.89185 15.44993,34.0827 0,6.1009 -6.86288,9.63353 -20.60649,10.60708 -8.00379,0.56695 -8.23184,0.51704 -18,-3.93961 -5.44143,-2.48261 -12.27816,-5.01701 -15.19273,-5.632 -7.31823,-1.54419 -17.59133,-1.39966 -21.6709,0.3049 -4.83653,2.02083 -9.11043,8.35729 -9.96082,14.76789 -1.21211,9.13727 -3.18766,9.76158 -11.98316,3.78689 -7.91087,-5.37377 -15.10717,-7.40554 -23.26816,-6.56942 -6.85871,0.70269 -9.00033,0.0415 -13.52306,-4.1749 -2.62647,-2.44859 -2.78187,-2.47194 -5.33171,-0.80122 -1.44451,0.94648 -18.00212,13.69674 -36.79468,28.3339 -18.79256,14.63717 -36.11526,28.10271 -38.49489,29.92341 l -4.32661,3.31038 -51.92341,0 c -28.55787,0 -51.90382,-0.3375 -51.8799,-0.75 z" id="path3102" fill="#e9008b"/><path d="m 275.26624,599.92329 c -4.15146,-1.67222 -5.03953,-4.72779 -5.66465,-19.4904 -0.62911,-14.85661 -2.19802,-22.15515 -6.25277,-29.08786 -3.4573,-5.91119 -3.18826,-9.75338 0.85912,-12.26917 1.7875,-1.11108 7.525,-5.44731 12.75,-9.63607 5.225,-4.18876 12.65,-9.48406 16.5,-11.76734 3.85,-2.28327 8.4869,-5.25577 10.30423,-6.60554 2.92851,-2.17507 3.47381,-2.28455 4.79552,-0.96285 1.83441,1.83442 5.40025,21.02566 5.40025,29.06399 0,3.24298 0.49245,6.81648 1.09434,7.94111 1.56655,2.92713 4.90566,15.3504 4.90566,18.25167 0,1.65171 -2.28712,4.91993 -7,10.00278 -3.85,4.15223 -7,7.98749 -7,8.52281 0,1.85616 -12.5161,14.35654 -15.71788,15.69813 -3.59584,1.50671 -11.62338,1.68831 -14.97382,0.33874 z m 114.01883,-56.86352 c -8.36514,-0.51548 -10.7125,-1.02671 -13.20951,-2.87688 -1.67015,-1.2375 -3.68324,-2.25 -4.47354,-2.25 -0.79029,0 -2.87184,-1.6875 -4.62567,-3.75 -1.75383,-2.0625 -4.75456,-5.55 -6.66829,-7.75 -1.91373,-2.2 -5.13836,-6.025 -7.16584,-8.5 -5.86676,-7.16171 -13.38035,-13.62841 -17.31336,-14.90102 -1.996,-0.64585 -4.41975,-2.04795 -5.38612,-3.11578 -1.67759,-1.85371 -1.6749,-1.97302 0.0595,-2.63856 0.99907,-0.38338 7.06324,0.028 13.47593,0.91425 13.61093,1.88101 19.74784,4.80026 24.2959,11.55726 1.54885,2.30112 3.19849,4.18385 3.66586,4.18385 0.46737,0 3.02513,2.0314 5.6839,4.51422 6.36,5.93911 13.39615,8.5398 25.47918,9.41756 10.51153,0.76361 14.3986,2.40176 15.42764,6.50177 2.05987,8.20717 -4.67033,10.20774 -29.24555,8.69333 z m 84.17287,-6.17247 c -2.75,-0.43784 -7.7,-1.84036 -11,-3.11672 -5.21391,-2.01661 -7.89972,-2.33625 -20.5,-2.43976 -7.975,-0.0655 -15.0625,-0.18185 -15.75,-0.25852 -2.10479,-0.23474 -1.38861,-2.06652 1.04696,-2.67781 1.26333,-0.31707 4.97583,-3.79435 8.25,-7.72728 3.27417,-3.93294 8.26044,-9.41958 11.0806,-12.19255 4.17129,-4.1015 10.37244,-13.67217 10.37244,-16.00853 0,-0.29328 -4.1625,-0.53575 -9.25,-0.53882 -10.77429,-0.006 -15.16966,-1.03624 -21.46551,-5.02895 -2.51678,-1.5961 -7.69378,-4.09338 -11.50442,-5.54951 -8.62306,-3.29506 -9.96779,-5.45565 -7.20659,-11.57892 1.68555,-3.73787 2.79072,-4.60356 10.40618,-8.15125 8.91607,-4.15358 22.44422,-13.31431 27.45743,-18.5931 1.6154,-1.70098 3.77525,-3.09269 4.79966,-3.09269 3.44507,0 7.7143,2.94817 8.35289,5.76819 0.34023,1.50249 1.26889,4.98181 2.06369,7.73181 1.04001,3.59842 1.37863,9.3444 1.20802,20.49827 -0.22426,14.66128 -0.13241,15.51397 1.70079,15.78894 5.02849,0.75423 6.17692,1.34467 7.26642,3.73587 0.64429,1.41406 1.17395,5.58735 1.17702,9.27397 0.008,9.16605 1.39239,13.50231 5.26245,16.47885 10.54575,8.11096 13.35316,13.77474 8.50946,17.1674 -2.38564,1.67097 -4.4523,1.757 -12.27749,0.51111 z m -126.2177,-42.65591 c -3.01879,-0.58415 -8.03465,-7.15776 -9.71052,-12.72624 -1.88125,-6.25095 -8.88981,-13.2618 -15.13694,-15.14191 -3.38902,-1.01994 -10.11592,-1.43035 -23.44455,-1.43035 -10.69406,0 -20.00479,-0.4577 -21.76037,-1.0697 -2.19513,-0.76522 -3.51845,-2.19414 -4.64923,-5.02023 -3.13708,-7.84035 -2.22443,-9.73914 7.96668,-16.57479 3.14486,-2.1094 7.45065,-5.01083 9.56841,-6.44761 2.11776,-1.43678 7.12056,-5.52982 11.11734,-9.09565 3.99679,-3.56584 8.22781,-6.99102 9.40229,-7.61153 3.01937,-1.59523 6.36459,-8.52837 6.36459,-13.19098 0,-2.17189 -0.73356,-7.58947 -1.63014,-12.03907 -1.22791,-6.09398 -1.34656,-8.37374 -0.48086,-9.23944 0.86571,-0.86571 1.72394,-0.54004 3.47827,1.31986 1.28094,1.35803 4.22375,3.59414 6.53959,4.96914 9.30712,5.526 10.75234,6.77092 14.73061,12.68896 2.27561,3.38518 4.94607,8.32751 5.93436,10.98295 0.98829,2.65545 3.0349,6.66697 4.54802,8.91449 1.51311,2.24753 3.95783,6.63503 5.4327,9.75 1.47488,3.11498 3.00108,5.6636 3.39158,5.6636 0.39049,0 5.73781,4.93308 11.88293,10.96239 10.00292,9.81443 11.17294,11.32792 11.17294,14.45295 0,6.4703 -1.545,8.1537 -10.87618,11.85042 -7.84002,3.10597 -8.71471,3.72462 -9.62382,6.80678 -1.13884,3.86101 -8.43754,11.99641 -10.57858,11.79128 -0.78178,-0.0749 -2.41939,-0.3293 -3.63912,-0.56532 z m 88.54079,-71.75593 c -2.57229,-1.37863 -4.93816,-3.32975 -5.25747,-4.33581 -0.31931,-1.00607 -2.66812,-3.60166 -5.21957,-5.76799 -5.70713,-4.84566 -7.34159,-8.54397 -7.36136,-16.65665 -0.008,-3.45517 -0.34592,-6.77781 -0.75,-7.38366 -0.99679,-1.49451 -13.93777,-5.7 -15.1791,-4.93282 -0.54547,0.33712 -5.43112,0.99856 -10.85701,1.46986 -10.56632,0.9178 -17.90953,0.12909 -19.30502,-2.07349 -0.98834,-1.55995 -1.19605,-11.91017 -0.28657,-14.28022 0.39085,-1.01853 1.83288,-1.58179 4.04966,-1.58179 1.89347,0 4.65782,-0.6158 6.14301,-1.36843 1.48519,-0.75264 6.05554,-1.68903 10.15635,-2.08086 8.37394,-0.80012 11.23329,-1.99355 15.48108,-6.46143 5.21178,-5.48183 13.23712,-3.34804 16.55955,4.40289 2.86133,6.6752 5.68388,8.02358 16.58851,7.92459 8.05771,-0.0731 9.72515,-0.40857 13.74634,-2.76514 2.51697,-1.47504 5.15955,-3.46946 5.87241,-4.43204 2.08437,-2.81456 10.0392,-9.21958 11.45042,-9.21958 0.71188,0 1.99891,1.36254 2.86009,3.02786 3.60357,6.96854 -2.32965,15.57481 -12.47847,18.10027 -11.98273,2.98182 -15.00132,8.25072 -8.52601,14.88204 2.90059,2.97048 4.68353,3.89049 8.52791,4.40046 7.73623,1.02625 9.09638,3.51727 8.74519,16.01622 l -0.28303,10.07315 -6.80111,2.24809 c -3.74061,1.23646 -10.49061,2.48502 -15,2.7746 -7.40348,0.47542 -8.65262,0.28332 -12.8758,-1.98012 z" id="path3100" fill="#da0282"/><path d="m 274.80255,597.67792 c -2.57892,-2.18038 -2.67486,-2.6617 -3.33138,-16.71319 -0.69868,-14.95397 -3.39639,-27.03528 -6.9018,-30.90871 -2.558,-2.82656 -2.43917,-8.12642 0.22442,-10.00965 1.25514,-0.88741 7.16852,-5.43848 13.14084,-10.11348 5.97232,-4.675 13.48329,-9.80265 16.69104,-11.39477 3.20775,-1.59213 7.34356,-4.01475 9.19069,-5.38359 2.72678,-2.02073 3.52323,-2.2286 4.23469,-1.10523 0.48194,0.76098 0.90998,1.83359 0.95119,2.38359 0.0412,0.55 0.50507,3.25 1.0308,6 0.52573,2.75 1.33265,9.73751 1.79314,15.52779 0.4605,5.79029 1.33754,11.41529 1.94898,12.5 0.61144,1.08472 2.02132,5.33471 3.13307,9.44443 l 2.02137,7.47221 -2.47482,3.73971 c -1.36115,2.05684 -3.84183,4.75038 -5.51263,5.98565 -1.67079,1.23528 -4.234,4.28991 -5.69601,6.78808 -3.63218,6.2064 -12.09794,15.02951 -16.00608,16.68173 -5.01935,2.12199 -11.33222,1.73084 -14.43751,-0.89457 z m 109.67127,-56.491 c -3.29127,-0.2023 -6.66709,-0.98589 -7.50183,-1.74132 -0.83474,-0.75543 -2.74441,-1.83989 -4.2437,-2.40992 -1.4993,-0.57004 -4.35319,-3.30136 -6.34198,-6.06961 -1.98879,-2.76825 -4.03368,-5.03318 -4.5442,-5.03318 -0.51052,0 -2.28085,-2.1375 -3.93406,-4.75 -4.09474,-6.47074 -16.50562,-17.78425 -21.70011,-19.7814 -4.07094,-1.56517 -6.1277,-4.12767 -2.5,-3.11474 0.9625,0.26875 5.8,1.03288 10.75,1.69806 11.00546,1.4789 19.00597,4.99644 21.68265,9.53308 1.04124,1.76477 5.28373,6.01325 9.42775,9.44106 9.0412,7.47863 18.34336,10.97394 29.20519,10.97394 6.99839,0 10.2119,1.31434 12.17309,4.97884 3.31244,6.18936 -5.65986,7.9232 -32.4728,6.27519 z m 87.48412,-5.96109 c -1.375,-0.23909 -5.425,-1.37325 -9,-2.52036 -4.57616,-1.46834 -10.41685,-2.2613 -19.73371,-2.67911 l -13.23371,-0.59347 6.51336,-7.5 c 3.58235,-4.125 8.95037,-9.975 11.92892,-13 2.97855,-3.025 6.28189,-7.525 7.34076,-10 2.62166,-6.12791 5.33588,-8.42978 8.88849,-7.53813 4.52485,1.13567 5.29589,2.3767 5.29589,8.52408 0,3.15759 0.45303,8.12988 1.00673,11.04954 0.91316,4.81505 1.70354,5.96638 8.50328,12.38649 7.71925,7.28829 8.90443,9.75067 5.55573,11.54284 -1.90609,1.0201 -8.17995,1.17766 -13.06574,0.32812 z M 343.57602,489.59777 c -1.71495,-1.83432 -3.90433,-5.54682 -4.8653,-8.25 -2.05041,-5.76775 -8.08932,-12.49467 -14.03552,-15.63458 -3.87223,-2.04474 -5.98445,-2.27002 -25.81762,-2.75361 -23.903,-0.58284 -24.10364,-0.63784 -26.05251,-7.14258 -1.01938,-3.40239 -0.92785,-4.14092 0.7454,-6.01475 2.45543,-2.74977 11.35018,-9.5708 17.22101,-13.2061 2.51965,-1.56021 7.75487,-5.63261 11.63382,-9.04979 3.87895,-3.41717 8.17928,-6.91587 9.55628,-7.77488 1.377,-0.85902 3.56772,-3.69247 4.86827,-6.29656 1.98853,-3.98165 2.26279,-5.63392 1.72438,-10.38837 -0.35213,-3.10951 -1.30616,-7.86535 -2.12006,-10.56854 -0.81389,-2.70318 -1.29614,-5.09854 -1.07166,-5.32302 0.22448,-0.22449 2.59363,1.12798 5.26476,3.00548 2.67114,1.8775 6.59057,4.23645 8.70986,5.24211 4.77864,2.26762 8.71061,7.49782 13.90068,18.49031 2.20728,4.675 5.20667,10.3 6.66531,12.5 1.45863,2.2 3.50076,5.94517 4.53805,8.32261 1.0373,2.37743 2.72083,4.90734 3.74118,5.62202 1.02035,0.71468 6.6028,5.90797 12.40543,11.54065 10.37711,10.07315 10.53918,10.3009 9.87559,13.87797 -0.85091,4.58686 -2.85547,6.83812 -6.85912,7.70328 -1.73047,0.37394 -5.26285,1.74641 -7.84973,3.04992 -3.95127,1.99103 -4.8115,2.94616 -5.37929,5.97275 -0.39977,2.13095 -2.06648,4.99332 -4.07992,7.00676 -4.58393,4.58393 -8.47838,4.60503 -12.71929,0.0689 z m 92.2499,0.76961 c -2.54762,-0.78442 -7.71548,-3.22807 -11.48413,-5.43035 -3.76866,-2.20228 -7.4441,-4.00414 -8.16764,-4.00414 -1.7593,0 -7.52978,-2.99728 -8.4509,-4.38953 -2.9497,-4.45843 2.25006,-11.02981 11.84573,-14.97046 7.0531,-2.89649 20.75103,-12.20345 25.82605,-17.54732 3.17498,-3.34318 6.82817,-3.96578 9.84424,-1.67774 4.41211,3.34711 8.03196,30.42128 5.67151,42.41922 -1.07655,5.47201 -1.41927,6.00912 -4.18767,6.5628 -5.15723,1.03144 -16.05089,0.5297 -20.89719,-0.96248 z m 2.46792,-67.72968 c -2.29026,-1.21264 -7.57776,-5.92057 -11.75,-10.46207 l -7.5859,-8.25725 0,-8.3703 c 0,-5.50151 -0.42842,-8.70965 -1.25,-9.36043 -0.6875,-0.54457 -3.60461,-1.75821 -6.48246,-2.69698 -4.42218,-1.44254 -6.0901,-1.52881 -10.77084,-0.5571 -3.04611,0.63238 -9.95677,1.22842 -15.35703,1.32454 -12.61959,0.22464 -13.32838,-0.2814 -12.93177,-9.23261 l 0.2921,-6.59261 5,-0.7064 c 21.47549,-3.03407 24.77158,-4.13866 30.42431,-10.19583 1.74312,-1.86783 3.43676,-2.59777 6.0275,-2.59777 4.94983,0 7.74581,2.25924 10.4982,8.48288 2.90853,6.57671 6.41872,8.09534 16.53784,7.15487 11.66285,-1.08395 12.6418,-1.51149 21.22276,-9.26864 4.48344,-4.05301 8.50436,-7.36911 8.93537,-7.36911 1.32706,0 2.85402,3.70872 2.85402,6.93194 0,4.60381 -5.17745,9.46186 -12.23065,11.47612 -10.90324,3.11375 -14.91857,6.95938 -13.40864,12.84194 0.90747,3.53541 6.98496,7.68005 12.86176,8.77127 6.99528,1.29891 8.44374,3.23767 9.3078,12.45852 1.00535,10.72851 0.50626,11.94331 -5.76955,14.04338 -4.20942,1.4086 -19.56733,4.52217 -21.76072,4.41165 -0.275,-0.0139 -2.37385,-1.01736 -4.6641,-2.23001 z" id="path3098" fill="#cf007a"/><path d="m 436.95794,489.47551 c -2.475,-0.7032 -8.325,-3.25802 -13,-5.67738 -4.675,-2.41936 -9.96147,-4.9143 -11.74772,-5.54432 -4.14817,-1.46306 -4.94813,-3.6385 -2.90977,-7.91297 1.3327,-2.79471 3.17395,-4.12531 10.20074,-7.3717 9.2451,-4.27125 21.0105,-12.21204 26.15577,-17.65324 8.60898,-9.10413 14.10386,0.97302 14.51375,26.61699 0.22543,14.10394 -0.33324,16.71511 -3.86344,18.05728 -3.42909,1.30374 -13.93253,1.02437 -19.34933,-0.51466 z m -93.99373,-3.69266 c -1.65345,-2.28252 -3.00627,-4.66592 -3.00627,-5.29643 0,-1.85935 -10.24939,-13.41884 -13.82721,-15.59464 -3.90273,-2.3734 -6.17279,-7.24083 -6.17279,-13.23564 0,-6.62915 1.42881,-7.8944 8.50319,-7.52978 4.74787,0.24471 6.15647,0.7099 6.98421,2.30653 2.48397,4.79131 5.34905,8.41216 11.47351,14.5 3.5965,3.575 7.98338,8.975 9.74863,12 2.81666,4.82676 3.10295,5.96797 2.33882,9.32311 -1.29076,5.66744 -3.56725,7.67689 -8.69708,7.67689 -3.9384,0 -4.61612,-0.38292 -7.34501,-4.15004 z m 94.74373,-64.39253 c -2.6125,-1.37267 -4.75,-2.93217 -4.75,-3.46555 0,-0.53339 -2.80766,-3.64167 -6.23925,-6.90729 l -6.23924,-5.93751 -0.36355,-8.00549 c -0.33757,-7.43341 -0.17121,-8.25767 2.32803,-11.53433 3.34958,-4.39153 4.79109,-4.82327 10.82551,-3.24226 3.54566,0.92895 5.7819,2.36886 8.5,5.47313 3.84137,4.38712 3.80453,4.37405 21.86857,7.75664 1.19904,0.22453 2.8454,1.07355 3.65857,1.88672 1.87816,1.87816 3.40907,18.1708 1.85355,19.72632 -1.60818,1.60818 -11.02282,4.47157 -17.19219,5.22888 -3.025,0.37132 -6.4,0.86444 -7.5,1.09582 -1.1,0.23138 -4.1375,-0.7024 -6.75,-2.07508 z m -61.49835,-38.14737 c -2.62667,-0.52423 -3.51186,-3.20761 -3.06744,-9.29864 l 0.31579,-4.32816 8,-0.19976 c 13.6598,-0.34109 15.64607,-0.99158 23.08802,-7.56121 7.46928,-6.59374 11.12142,-7.51189 15.66474,-3.93811 9.0884,7.14893 -1.45149,19.85468 -19.75276,23.8118 -5.71356,1.23539 -20.89505,2.18333 -24.24835,1.51408 z" id="path3096" fill="#ad0066"/><path d="m 437.45794,488.2819 c -1.1,-0.2496 -6.5,-2.64485 -12,-5.32279 -5.5,-2.67793 -11.2375,-5.34471 -12.75,-5.92616 -2.94873,-1.13358 -3.55868,-3.7205 -1.6973,-7.19853 0.57898,-1.08184 4.74148,-3.67156 9.25,-5.75493 9.61213,-4.44175 19.26987,-10.83391 25.46377,-16.85369 2.4294,-2.3611 4.73977,-4.29291 5.13418,-4.29291 4.48111,0 8.11628,13.42504 7.98786,29.5 -0.13273,16.61614 0.28439,15.97028 -10.43128,16.15141 -4.92648,0.0833 -9.85723,-0.0528 -10.95723,-0.3024 z m -94.57142,-6.33163 c -1.90442,-3.57306 -6.65879,-9.46835 -11.80451,-14.63728 l -8.61582,-8.65468 -0.004,-6.11271 -0.004,-6.11271 5.03039,-0.29464 5.03039,-0.29465 4.30016,6.4934 c 2.36509,3.57136 5.79185,7.37351 7.61502,8.44921 1.89258,1.11664 5.5187,5.322 8.45127,9.80125 4.25918,6.50554 5.05384,8.41572 4.65298,11.18466 -0.70122,4.84364 -2.22857,6.16077 -7.14401,6.16077 -4.25529,0 -4.3659,-0.0881 -7.50762,-5.98262 z m 94.82142,-62.08547 c -2.0625,-1.08883 -3.75,-2.38613 -3.75,-2.88289 0,-0.49677 -2.7,-3.56165 -6,-6.81087 l -6,-5.90765 0,-7.64948 c 0,-6.95695 0.25235,-7.93189 2.78738,-10.76909 2.74374,-3.07078 2.85725,-3.1 7.25,-1.86641 2.8045,0.78757 5.84607,2.68938 8.18601,5.11848 4.46957,4.63989 6.16504,5.34471 16.4876,6.85407 4.3819,0.64072 8.60203,1.55662 9.37805,2.03533 1.05003,0.64774 1.41096,3.2343 1.41096,10.11158 l 0,9.24119 -3.5,0.87552 c -6.67261,1.66913 -17.51216,3.6389 -20,3.63442 -1.375,-0.002 -4.1875,-0.89536 -6.25,-1.9842 z m -62.5784,-39.22515 c -0.7223,-0.87031 -1.16079,-3.2657 -0.98613,-5.38697 l 0.31453,-3.81979 11,-0.62278 c 6.05,-0.34253 11.33975,-0.68003 11.75499,-0.75 0.41525,-0.07 4.10884,-3.05222 8.208,-6.62722 4.09915,-3.575 8.34681,-6.5 9.43925,-6.5 1.09243,0 3.20137,1.04522 4.68655,2.32271 6.06719,5.21878 -0.0708,13.53924 -14.08501,19.0933 -8.87703,3.5181 -28.10821,4.97048 -30.33218,2.29075 z" id="path3094" fill="#a1005f"/></g></g></svg>