<?xml version="1.0" encoding="UTF-8" standalone="no"?>
<svg xmlns:dc="http://purl.org/dc/elements/1.1/" xmlns:cc="http://creativecommons.org/ns#" xmlns:rdf="http://www.w3.org/1999/02/22-rdf-syntax-ns#" xmlns:svg="http://www.w3.org/2000/svg" xmlns="http://www.w3.org/2000/svg" viewBox="0 0 603.34668 202.57333" height="202.57333" width="603.34668" xml:space="preserve" id="svg2" version="1.1"><metadata id="metadata8"><rdf:RDF><cc:Work rdf:about=""><dc:format>image/svg+xml</dc:format><dc:type rdf:resource="http://purl.org/dc/dcmitype/StillImage"/></cc:Work></rdf:RDF></metadata><defs id="defs6"/><g transform="matrix(1.3333333,0,0,-1.3333333,0,202.57333)" id="g10"><g transform="scale(0.1)" id="g12"><path id="path14" style="fill:#469cdb;fill-opacity:1;fill-rule:nonzero;stroke:none" d="m 1160.3,1133.29 c 18.54,118.18 -0.13,198.6 -64.05,271.44 -70.38,80.2 -197.523,114.55 -360.195,114.55 H 263.859 c -33.246,0 -61.55,-24.19 -66.73,-57.03 L 0.503906,215.422 C -3.375,190.82 15.6406,168.57 40.543,168.57 H 332.055 L 311.934,40.9805 C 308.539,19.4609 325.172,0 346.961,0 h 245.707 c 29.082,0 53.844,21.1602 58.375,49.8906 l 2.41,12.4883 46.289,293.5191 2.985,16.223 c 4.535,28.731 29.293,49.891 58.378,49.891 h 36.754 c 238.041,0 424.431,96.707 478.891,376.39 22.76,116.868 10.99,214.418 -49.19,282.998 -18.2,20.74 -40.85,37.9 -67.26,51.89 v 0"/><path id="path16" style="fill:#232d62;fill-opacity:1;fill-rule:nonzero;stroke:none" d="m 1160.3,1133.29 c 18.54,118.18 -0.13,198.6 -64.05,271.44 -70.38,80.2 -197.523,114.55 -360.195,114.55 H 263.859 c -33.246,0 -61.55,-24.19 -66.73,-57.03 L 0.503906,215.422 C -3.375,190.82 15.6406,168.57 40.543,168.57 h 291.512 l 73.226,464.336 -2.273,-14.558 c 5.183,32.84 33.246,57.027 66.492,57.027 h 138.551 c 272.105,0 485.169,110.551 547.419,430.265 1.85,9.46 3.42,18.63 4.83,27.65"/><path id="path18" style="fill:#293982;fill-opacity:1;fill-rule:nonzero;stroke:none" d="m 483.941,1131.72 c 3.118,19.75 15.793,35.92 32.864,44.1 7.758,3.72 16.425,5.79 25.515,5.79 h 370.141 c 43.848,0 84.73,-2.87 122.109,-8.89 10.68,-1.72 21.08,-3.7 31.18,-5.94 10.09,-2.24 19.89,-4.74 29.38,-7.52 4.75,-1.38 9.42,-2.84 14,-4.36 18.36,-6.1 35.45,-13.28 51.17,-21.61 18.54,118.18 -0.13,198.6 -64.05,271.44 -70.38,80.2 -197.523,114.55 -360.195,114.55 H 263.863 c -33.25,0 -61.554,-24.19 -66.734,-57.03 L 0.503906,215.422 C -3.375,190.82 15.6406,168.57 40.543,168.57 h 291.512 l 73.226,464.336 78.66,498.814"/><path id="path20" style="fill:#293982;fill-opacity:1;fill-rule:nonzero;stroke:none" d="m 3283.16,232.961 h 39.38 c 104.72,0 203.17,57.277 224.65,188.848 18.79,120.832 -50.12,188.855 -162.89,188.855 h -28.91 c -7.07,0 -13.08,-5.137 -14.19,-12.109 z m -95.46,505.5 c 1.89,11.969 12.2,20.781 24.32,20.781 h 227.77 c 187.95,0 319.51,-147.683 289.97,-337.433 C 3699.34,232.059 3520.34,84.3789 3333.29,84.3789 h -232.01 c -8.82,0 -15.56,7.8828 -14.18,16.6011 l 100.6,637.481"/><path id="path22" style="fill:#293982;fill-opacity:1;fill-rule:nonzero;stroke:none" d="m 2892.74,589.902 -14.6,-92.011 h 181.01 c 8.81,0 15.55,-7.871 14.18,-16.582 l -17.41,-111.18 c -1.87,-11.988 -12.19,-20.82 -24.32,-20.82 h -155.77 c -12.08,0 -22.38,-8.758 -24.3,-20.688 l -15.45,-95.66 h 191.74 c 8.82,0 15.55,-7.871 14.19,-16.59 l -17.41,-111.18 c -1.88,-11.9801 -12.2,-20.8121 -24.32,-20.8121 h -346.09 c -8.82,0 -15.56,7.8828 -14.18,16.6011 l 100.6,637.481 c 1.89,11.969 12.2,20.781 24.32,20.781 h 346.13 c 8.82,0 15.55,-7.871 14.19,-16.586 l -17.42,-111.183 c -1.87,-11.981 -12.2,-20.809 -24.32,-20.809 h -166.45 c -12.11,0 -22.42,-8.805 -24.32,-20.762"/><path id="path24" style="fill:#293982;fill-opacity:1;fill-rule:nonzero;stroke:none" d="m 3882.94,84.3789 h -137.57 c -8.83,0 -15.56,7.8828 -14.19,16.6011 l 100.61,637.481 c 1.88,11.969 12.2,20.781 24.31,20.781 h 137.58 c 8.82,0 15.56,-7.883 14.18,-16.597 L 3907.26,105.16 c -1.89,-11.9686 -12.2,-20.7811 -24.32,-20.7811"/><path id="path26" style="fill:#293982;fill-opacity:1;fill-rule:nonzero;stroke:none" d="m 2290.93,456.719 h 17 c 57.28,0 123.17,10.793 135.14,84.133 11.98,73.375 -26.24,83.91 -87.44,84.132 h -24.85 c -7.49,0 -13.87,-5.441 -15.05,-12.839 z M 2592.05,84.3789 h -180.28 c -7.67,0 -14.66,4.4024 -17.97,11.3125 L 2274.82,343.941 h -1.79 l -38.51,-242.75 c -1.53,-9.6793 -9.88,-16.8121 -19.68,-16.8121 h -141.6 c -8.82,0 -15.56,7.8828 -14.18,16.6011 l 101.22,641.438 c 1.53,9.687 9.89,16.824 19.69,16.824 h 245.2 c 133.35,0 224.65,-63.547 202.27,-207.648 -15.21,-93.082 -79.65,-173.633 -178.1,-190.645 l 154.98,-254.75 c 5.82,-9.5584 -1.07,-21.8201 -12.27,-21.8201"/><path id="path28" style="fill:#293982;fill-opacity:1;fill-rule:nonzero;stroke:none" d="m 4255.03,84.3789 h -137.57 c -8.83,0 -15.56,7.8906 -14.18,16.6011 l 80.6,509.684 h -128.2 c -8.82,0 -15.56,7.871 -14.19,16.582 l 17.42,111.188 c 1.87,11.98 12.19,20.808 24.32,20.808 h 427.54 c 8.82,0 15.56,-7.871 14.19,-16.582 l -17.41,-111.187 c -1.88,-11.981 -12.2,-20.809 -24.32,-20.809 H 4359.3 l -79.95,-505.516 c -1.89,-11.9566 -12.21,-20.7691 -24.32,-20.7691"/><path id="path30" style="fill:#293982;fill-opacity:1;fill-rule:nonzero;stroke:none" d="m 2068.01,567.465 c -2.03,-12.52 -17.35,-17.024 -26.2,-7.949 -30.06,30.8 -74.17,47.078 -121.65,47.078 -107.31,0 -192.25,-82.266 -209.24,-186.883 -16.11,-106.422 44.7,-183.32 153.79,-183.32 44.98,0 92.7,17.109 132.35,45.711 10.94,7.886 25.97,-1.563 23.81,-14.883 l -24.96,-154.418 c -1.49,-9.192 -8.15,-16.7112 -17.08,-19.3322 -53.42,-15.6875 -94.44,-27 -144.51,-27 -290.9,0 -337.42,248.5112 -322.44,354.1402 42.04,296.207 282.39,364.067 429.73,355.895 47.48,-2.633 90.01,-8.941 131.67,-24.602 13.46,-5.062 21.48,-18.937 19.19,-33.132 l -24.46,-151.305"/><path id="path32" style="fill:#469cdb;fill-opacity:1;fill-rule:nonzero;stroke:none" d="m 2959.38,1292.57 c -8.3,-54.55 -49.96,-54.55 -90.26,-54.55 h -22.92 l 16.08,101.84 c 0.97,6.16 6.28,10.69 12.51,10.69 h 10.51 c 27.43,0 53.34,0 66.69,-15.62 8,-9.36 10.42,-23.21 7.39,-42.36 z m -17.53,142.31 h -151.97 c -10.39,0 -19.23,-7.56 -20.85,-17.83 l -61.45,-389.64 c -1.22,-7.69 4.73,-14.64 12.51,-14.64 h 77.97 c 7.27,0 13.46,5.28 14.6,12.47 l 17.42,110.47 c 1.62,10.26 10.47,17.82 20.86,17.82 h 48.08 c 100.1,0 157.87,48.44 172.97,144.45 6.8,41.99 0.27,74.98 -19.39,98.08 -21.61,25.39 -59.91,38.82 -110.75,38.82"/><path id="path34" style="fill:#293982;fill-opacity:1;fill-rule:nonzero;stroke:none" d="m 1875.52,1292.57 c -8.31,-54.55 -49.97,-54.55 -90.26,-54.55 h -22.93 l 16.08,101.84 c 0.97,6.16 6.28,10.69 12.51,10.69 h 10.51 c 27.43,0 53.34,0 66.7,-15.62 7.99,-9.36 10.41,-23.21 7.39,-42.36 z m -17.54,142.31 h -151.97 c -10.39,0 -19.23,-7.56 -20.85,-17.83 l -61.45,-389.64 c -1.21,-7.69 4.73,-14.64 12.51,-14.64 h 72.56 c 10.39,0 19.24,7.55 20.86,17.82 l 16.58,105.12 c 1.62,10.26 10.46,17.82 20.85,17.82 h 48.09 c 100.09,0 157.86,48.44 172.96,144.45 6.8,41.99 0.28,74.98 -19.38,98.08 -21.62,25.39 -59.92,38.82 -110.76,38.82"/><path id="path36" style="fill:#293982;fill-opacity:1;fill-rule:nonzero;stroke:none" d="m 2210.77,1152.68 c -7.02,-41.57 -40.03,-69.48 -82.13,-69.48 -21.1,0 -38,6.78 -48.86,19.64 -10.76,12.74 -14.82,30.89 -11.4,51.11 6.55,41.2 40.09,70.01 81.55,70.01 20.66,0 37.44,-6.85 48.51,-19.82 11.15,-13.07 15.53,-31.34 12.33,-51.46 z m 101.42,141.63 h -72.77 c -6.23,0 -11.54,-4.53 -12.51,-10.69 l -3.2,-20.35 -5.09,7.37 c -15.76,22.88 -50.88,30.52 -85.95,30.52 -80.39,0 -149.07,-60.92 -162.43,-146.36 -6.96,-42.63 2.92,-83.36 27.09,-111.79 22.2,-26.13 53.89,-37 91.64,-37 64.8,0 100.74,41.63 100.74,41.63 l -3.25,-20.23 c -1.21,-7.69 4.73,-14.64 12.52,-14.64 h 65.53 c 10.39,0 19.23,7.55 20.85,17.81 l 39.34,249.1 c 1.21,7.68 -4.73,14.63 -12.51,14.63"/><path id="path38" style="fill:#469cdb;fill-opacity:1;fill-rule:nonzero;stroke:none" d="m 3294.64,1152.68 c -7.02,-41.57 -40.03,-69.48 -82.13,-69.48 -21.11,0 -38,6.78 -48.86,19.64 -10.77,12.74 -14.82,30.89 -11.4,51.11 6.55,41.2 40.08,70.01 81.54,70.01 20.67,0 37.45,-6.85 48.52,-19.82 11.14,-13.07 15.53,-31.34 12.33,-51.46 z m 101.41,141.63 h -72.76 c -6.24,0 -11.55,-4.53 -12.51,-10.69 l -3.21,-20.35 -5.08,7.37 c -15.76,22.88 -50.88,30.52 -85.95,30.52 -80.39,0 -149.07,-60.92 -162.44,-146.36 -6.95,-42.63 2.92,-83.36 27.09,-111.79 22.21,-26.13 53.9,-37 91.65,-37 64.8,0 100.74,41.63 100.74,41.63 l -3.25,-20.23 c -1.22,-7.69 4.73,-14.64 12.51,-14.64 h 65.53 c 10.39,0 19.24,7.55 20.86,17.81 l 39.34,249.1 c 1.21,7.68 -4.73,14.63 -12.52,14.63"/><path id="path40" style="fill:#293982;fill-opacity:1;fill-rule:nonzero;stroke:none" d="m 2699.75,1294.31 h -73.14 c -7,0 -13.54,-3.47 -17.47,-9.26 l -100.89,-148.59 -42.76,142.79 c -2.67,8.93 -10.9,15.06 -20.23,15.06 h -71.89 c -8.68,0 -14.79,-8.54 -11.99,-16.76 l 80.53,-236.38 -75.75,-106.881 c -5.94,-8.387 0.06,-19.992 10.34,-19.992 h 73.07 c 6.92,0 13.41,3.394 17.35,9.09 l 243.24,351.043 c 5.82,8.39 -0.19,19.88 -10.41,19.88"/><path id="path42" style="fill:#469cdb;fill-opacity:1;fill-rule:nonzero;stroke:none" d="m 3481.82,1424.18 -62.37,-396.78 c -1.21,-7.69 4.73,-14.63 12.51,-14.63 h 62.73 c 10.39,0 19.24,7.55 20.86,17.82 l 61.49,389.64 c 1.22,7.69 -4.73,14.65 -12.51,14.65 h -70.2 c -6.23,0 -11.54,-4.54 -12.51,-10.7"/></g></g></svg>