<svg id="Layer_1" data-name="Layer 1" xmlns="http://www.w3.org/2000/svg" viewBox="0 0 166.02 165.98"><path class="cls-1" d="M95.81-2.81h.1c.58.06.35.89.35,1.65a82.51,82.51,0,0,0,.55,10.37,32.22,32.22,0,0,0,1.1,5.71,11.54,11.54,0,0,0,2.46,4.86,4.5,4.5,0,0,0,5.26.7,14.34,14.34,0,0,0,1.8-1,24.84,24.84,0,0,0,2.56-2,53.6,53.6,0,0,0,7-7.67c.95-1.08,1.77-2.35,2.71-3.61.19-.26.64-1.09.95-1.1,1,0,.19,1.38.1,1.65s-.19.81-.3,1.2c-.8,3-1.72,6-2.35,9a36.44,36.44,0,0,0-.7,5.36c-.14,2.4.2,5,1.25,6.52a7.78,7.78,0,0,1,1,1,6.78,6.78,0,0,0,3.81.5c3.35-.43,6.22-2.15,8.72-3.51a48.14,48.14,0,0,0,5.06-3.16c1.21-.87,2.4-1.69,3.61-2.56.37-.27.78-.69,1.3-.6.49.49-.06.95-.3,1.3-2.74,4-5.61,7.83-7.66,12.68-1.09,2.57-2.64,6.33-.85,8.92,1.62,2.35,6.2,2.25,9.12,1.85a79.5,79.5,0,0,0,13.08-3.11,4.4,4.4,0,0,1,2.05-.5c.47.89-.73,1.23-1.25,1.65-.94.76-2,1.54-3,2.31a47.56,47.56,0,0,0-8.67,8.27A10.41,10.41,0,0,0,142,59.63c.29,2.64,2.33,3.88,4.61,4.76A30.52,30.52,0,0,0,153,65.8c2.15.26,4.22.47,6.56.55,1.77.06,3.45.13,5,.1.41,0,1.36-.15,1.4.4.07.85-2,.77-2.3,1.15-5.72,1.95-11.54,4.18-15.94,7.72-1,1.14-2.58,2.63-2.4,4.61a6.88,6.88,0,0,0,1.2,2.71c2.34,2.58,5.58,4.29,9,5.86a96.87,96.87,0,0,0,9.37,3.46c.41.14,1,.16,1.15.7v0c0,.51-.67.4-1.3.4a91.65,91.65,0,0,0-9.92.45c-3.72.39-7.65,1.13-10.57,2.9a11.72,11.72,0,0,0-1.7,1.81c-1,2,.09,4.23,1.05,5.91a22.64,22.64,0,0,0,3.15,3.81,51.86,51.86,0,0,0,7.42,6.46l3,2.21c.47.35,1,.65.7,1.1s-2-.29-2.46-.45a57.69,57.69,0,0,0-12.68-3c-3.15-.29-5.95-.42-8.47,1.1a7.89,7.89,0,0,0-1.3,1.85c-.63,3.21.44,5.7,1.6,8.32,1.79,4.05,4.61,7.85,6.87,11.27a7.51,7.51,0,0,1,.75,1c.21.27.84.95.3,1.2s-1.24-.6-1.6-.85a88.44,88.44,0,0,0-10-6.31c-2.51-1.31-6.74-3.34-10.32-2.3a19,19,0,0,0-1.55,1.15,16.56,16.56,0,0,0-.8,1.75c-.93,2.9-.41,7,.3,10.17.14.64.16,1.34.35,2,.83,3,1.56,5.79,2.56,8.82.09.27.29.8-.05,1s-1-.76-1.25-1.1-.49-.69-.8-1.05-.63-1-1-1.4c-.78-.95-1.52-1.9-2.31-2.86-1.06-1.29-2.28-2.43-3.31-3.76-1.67-1.37-3.64-3.56-5.91-4.66a5.68,5.68,0,0,0-4.31-.65,10.4,10.4,0,0,0-1.65,1c-2.88,3.59-3.48,9.27-3.81,13.13-.15,1.85-.19,3.34-.2,6.41,0,.64,0,1,0,1.65s.11,1.42-.3,1.5-.75-.92-.85-1.2c-1.35-3.55-2.42-7.14-4-10.32a26.21,26.21,0,0,0-4.91-7.37,5.08,5.08,0,0,0-4-1.65,7.25,7.25,0,0,0-2.21.9c-2.85,2.24-4.39,5.55-6.11,9.07a89.35,89.35,0,0,0-3.56,9.67c-.1.28-.39,1.14-.85,1s-.29-1-.3-1.55a89.93,89.93,0,0,0-.6-10.77,40.79,40.79,0,0,0-1-5.31,11.54,11.54,0,0,0-3-5.46,5.84,5.84,0,0,0-2.25-.75c-2.06,0-4.18,1.39-5.66,2.61-.71.57-1.33,1.07-2,1.7,0,0-.16,0-.2,0s0,.16-.05.2c-.74.7-1.44,1.38-2.1,2.1-2,2.19-3.78,4.48-5.66,7-.26.34-.56.71-.9,1.21s-.69,1.11-1.05,1.05-.31-.81-.2-1.15c1-3.14,1.94-6.29,2.76-9.82a33.83,33.83,0,0,0,.85-6.16,21,21,0,0,0-.1-3.36,12,12,0,0,0-.85-2.8,4.94,4.94,0,0,0-2.4-1.8,9.79,9.79,0,0,0-5.06.5c-1.71.52-3.24,1.35-4.61,1.9-1,.67-2.05,1.14-3.06,1.75s-1.92,1.28-2.91,1.85c-1.36,1-2.79,1.89-4.26,3-.3.21-1,1-1.45.8-.74-.37.64-1.87.85-2.15.55-.74,1-1.41,1.5-2a7.52,7.52,0,0,1,1.05-1.6,46.47,46.47,0,0,0,6-12.28c.44-2.45,0-4.79-1.7-5.86-3-1.85-8.93-.92-12.18-.2A77.79,77.79,0,0,0,11,118.11l-1.4.45c-.24.08-1.12.39-1.3,0s.89-1.11,1.3-1.4a79.21,79.21,0,0,0,6.21-5c.25-.22.56-.37.8-.6.68-.66,1.39-1.34,2.1-2.05A5.85,5.85,0,0,0,20,108a13,13,0,0,0,2.36-3c.82-1.28,1.79-2.69,1.66-4.61s-1.71-2.84-2.91-3.76C16.34,94.54,10.5,94.17,5.46,94c-1.29,0-2.7-.09-4.26,0C.74,94,.09,94,0,93.56s.86-.65,1.3-.8a87.13,87.13,0,0,0,9-3.41A36.27,36.27,0,0,0,17,85.69c1.38-1,3.36-2.66,3.66-4.71a4.25,4.25,0,0,0-.6-2.81,10.53,10.53,0,0,0-2.91-3,37,37,0,0,0-6.92-3.76c-.28-.13-.52-.29-.8-.4-2.54-1-5.13-2-7.87-2.86C1,68,.29,68,0,67.4v-.1c.08-.38.34-.38.55-.4,1-.1,2.12,0,3.21,0,5-.12,10.24-.34,14.63-1.85a9.82,9.82,0,0,0,4.51-2.56c2.16-2.61,0-6.26-1.75-8.37C18,50.19,13.64,46.93,9.52,43.8c-.32-.24-1.85-.94-1.45-1.6.24-.41,1.1.07,1.35.15A85.88,85.88,0,0,0,19.85,45.1c2.75.52,6.41,1.1,8.92.55a8.45,8.45,0,0,0,2.81-1,4.09,4.09,0,0,0,1.6-2.91,8.48,8.48,0,0,0-.3-3.31,31.83,31.83,0,0,0-4.26-9.22c-1.13-1.84-2.4-3.77-3.61-5.46-.34-.47-.55-.65-1-1.25-.13-.18-.93-1.14-.5-1.5s1,.33,1.3.55c1.26.94,2.56,1.78,3.71,2.56a47.19,47.19,0,0,0,10.77,5.76c2,.71,4.42,1.24,6.47.35,2.63-1.56,2.78-5.44,2.4-8.87A73,73,0,0,0,44.7,6.91c0-.15-.48-1.21-.05-1.4s.91.57,1.1.85a85.82,85.82,0,0,0,6.47,8,35.07,35.07,0,0,0,4.21,4.06c2,1.59,5.2,3.77,8.07,2.11a10.73,10.73,0,0,0,1.4-1.4A12.45,12.45,0,0,0,67.4,16c1.73-5.12,1.86-11.61,1.85-17.34,0-.59-.16-1.18.3-1.3s.66.73.8,1.15c.23.69.46,1.28.55,1.55a70.31,70.31,0,0,0,4.26,10.32,30.25,30.25,0,0,0,2.36,3.91c1,1.4,2.76,3.34,4.76,3.61a6,6,0,0,0,2.71-.6c2.92-2.12,4.76-5.41,6.42-9C92.6,5.65,93.56,2.74,94.61,0c.15-.39.27-.93.45-1.5s.31-1.3.75-1.3" transform="translate(0 2.81)" fill="#ec008c"/></svg>